<svg xmlns="http://www.w3.org/2000/svg" width="24" height="24" viewBox="0 0 400 400"><title>Capacitor icon</title><path d="M168.6 80.279c-.969.226-27.61 26.665-28.437 28.221l-.584 1.1 32.226 32.3c37.215 37.3 43.344 43.426 85.323 85.277 17.09 17.038 31.659 31.503 32.376 32.145l1.303 1.167 1.358-1.035c3.15-2.403 27.158-26.891 27.487-28.037.332-1.157-.308-1.83-29.103-30.632-16.193-16.198-29.614-29.757-29.824-30.133-.53-.946-1.447.015 30.047-31.485 33.592-33.597 29.875-29.616 28.962-31.02-1.409-2.166-27.302-27.724-28.356-27.988-.942-.237-3.586 2.297-30.777 29.491-16.36 16.363-30.053 29.813-30.427 29.89-.463.094-10.295-9.471-30.532-29.7-16.417-16.412-29.938-29.819-30.046-29.794l-.996.233m-60.847 60.485c-2.844 2.114-27.247 26.996-27.496 28.036-.215.898 2.817 4.058 29.591 30.846 20.235 20.244 29.787 30.065 29.692 30.528-.077.375-13.615 14.144-30.085 30.599l-29.946 29.916.74 1.156c1.02 1.592 26.898 27.433 28.105 28.065 1.247.652-2.098 3.815 32.153-30.413l29.122-29.103 1.085.577c.597.318 14.226 13.732 30.286 29.81 27.691 27.722 29.26 29.22 30.355 28.982 1.123-.244 26.913-25.568 28.49-27.976.828-1.264 4.027 2.131-32.66-34.657-58.469-58.63-114.388-114.455-116.545-116.348l-1.334-1.172-1.553 1.154" fill="#68bff9"/></svg>