<?xml version="1.0" standalone="no"?>
<!DOCTYPE svg PUBLIC "-//W3C//DTD SVG 20010904//EN"
 "http://www.w3.org/TR/2001/REC-SVG-20010904/DTD/svg10.dtd">
<svg version="1.0" xmlns="http://www.w3.org/2000/svg"
 width="659.000000pt" height="1022.000000pt" viewBox="0 0 659.000000 1022.000000"
 preserveAspectRatio="xMidYMid meet">

<g transform="translate(0.000000,1022.000000) scale(0.100000,-0.100000)"
fill="#000000" stroke="none">
<path d="M822 8761 l-821 -1460 815 -1448 c448 -796 818 -1451 823 -1456 4 -4
376 647 827 1448 l818 1455 1642 0 1642 0 -821 1460 -821 1460 -1642 0 -1642
0 -820 -1459z"/>
<path d="M4423 4908 c-286 -508 -654 -1163 -819 -1455 l-299 -533 -1641 -2
-1641 -3 820 -1457 820 -1458 1642 0 1641 0 821 1459 822 1460 -815 1448
c-449 796 -819 1452 -823 1456 -5 5 -242 -407 -528 -915z"/>
</g>
</svg>
